# Blender v2.83.9 OBJ File: ''
# www.blender.org
mtllib samuraicharr.mtl
o Material#131
v -0.929760 1.665101 -0.234329
v -0.974773 1.665042 -0.260486
v -0.974663 6.892819 -0.272208
v -1.020078 1.665217 -0.182523
v -1.019822 6.892878 -0.246303
v -1.019932 1.665101 -0.234582
v -0.975065 1.665276 -0.156366
v -0.929650 6.892878 -0.246051
v -0.974919 1.665159 -0.208425
v -0.929906 1.665218 -0.182270
v -1.019968 6.892994 -0.194245
v -0.974955 6.893053 -0.168087
v -0.974804 7.140746 -0.220703
v -0.929796 6.892995 -0.193992
v -0.958353 2.267151 -0.208365
v -0.806148 1.792804 -0.206664
v -0.806141 2.131423 -0.207423
v -0.958361 1.928532 -0.207606
v -0.991469 2.267151 -0.208458
v -0.991476 1.928532 -0.207698
v -1.143687 2.131420 -0.208790
v -1.143694 1.792811 -0.208031
vt 0.825095 -0.213880
vt 0.967232 -0.213880
vt 0.967232 -0.210800
vt 0.825095 -0.210800
vt 0.825095 -0.216970
vt 0.967232 -0.216970
vt 0.825095 -0.220050
vt 0.967232 -0.220050
vt 0.825095 -0.223130
vt 0.967232 -0.223130
vt 0.825095 -0.207710
vt 0.967232 -0.207710
vt 0.967232 -0.204630
vt 0.825095 -0.204630
vt 0.548236 -0.478370
vt 0.545563 -0.476810
vt 0.545680 -0.479920
vt 0.543044 -0.478580
vt 0.542759 -0.475540
vt 0.545445 -0.473740
vt 0.548236 -0.475310
vt 0.779799 -0.130300
vt 0.772822 -0.130300
vt 0.772101 -0.165620
vt 0.765846 -0.130300
vt 0.758870 -0.130300
vt 0.751893 -0.130300
vt 0.703948 -0.130800
vt 0.738830 -0.130800
vt 0.724156 -0.166130
vt 0.786775 -0.130300
vt 0.478676 -0.094840
vt 0.468534 -0.130740
vt 0.414188 -0.130920
vt 0.424330 -0.095030
vt 0.414188 -0.130920
vt 0.468534 -0.130740
vt 0.478676 -0.094840
vt 0.424330 -0.095030
vn 0.1918 -0.0022 -0.9814
vn -0.1862 -0.0022 -0.9825
vn 0.7578 -0.0015 -0.6525
vn 0.9458 -0.0007 -0.3247
vn -0.7541 -0.0015 -0.6568
vn -0.9440 -0.0008 -0.3300
vn -0.1863 -0.0022 -0.9825
vn 0.1917 -0.0022 -0.9814
vn -0.7541 -0.0014 -0.6568
vn -0.9458 0.0007 0.3247
vn -0.7578 0.0014 0.6525
vn -0.9440 -0.0007 -0.3300
vn -0.9458 0.0008 0.3247
vn -0.1918 0.0022 0.9814
vn 0.1862 0.0022 0.9825
vn -0.7578 0.0015 0.6525
vn 0.7541 0.0014 0.6568
vn 0.9440 0.0007 0.3300
vn 0.1863 0.0022 0.9825
vn -0.1917 0.0022 0.9814
vn 0.7541 0.0015 0.6568
vn 0.9458 -0.0008 -0.3247
vn -0.0000 -1.0000 0.0022
vn 0.8489 0.2045 -0.4874
vn 0.0028 0.2034 -0.9791
vn -0.0001 1.0000 -0.0023
vn -0.8462 0.2045 -0.4922
vn 0.0001 1.0000 -0.0023
vn -0.8462 0.2045 -0.4921
vn -0.8489 0.2067 0.4865
vn 0.0000 1.0000 -0.0023
vn -0.0027 0.2078 0.9782
vn 0.0001 1.0000 -0.0022
vn 0.8462 0.2067 0.4912
vn 0.0000 1.0000 -0.0022
vn -0.0042 0.0022 1.0000
usemtl None
s off
f 2/1/1 3/2/2 8/3/3
f 8/3/3 1/4/4 2/1/1
f 6/5/5 5/6/6 3/2/7
f 3/2/7 2/1/8 6/5/9
f 4/7/10 11/8/11 5/6/12
f 5/6/12 6/5/9 4/7/13
f 7/9/14 12/10/15 11/8/16
f 11/8/16 4/7/13 7/9/14
f 10/11/17 14/12/18 12/13/19
f 12/13/19 7/14/20 10/11/21
f 1/4/22 8/3/3 14/12/18
f 14/12/18 10/11/21 1/4/4
f 1/15/23 9/16/23 2/17/23
f 2/17/23 9/16/23 6/18/23
f 6/18/23 9/16/23 4/19/23
f 4/19/23 9/16/23 7/20/23
f 7/20/23 9/16/23 10/21/23
f 10/21/23 9/16/23 1/15/23
f 8/22/24 3/23/25 13/24/26
f 3/23/25 5/25/27 13/24/28
f 5/25/29 11/26/30 13/24/31
f 11/26/30 12/27/32 13/24/33
f 12/28/32 14/29/34 13/30/28
f 14/31/34 8/22/24 13/24/35
f 16/32/36 17/33/36 15/34/36
f 15/34/36 18/35/36 16/32/36
f 19/36/36 21/37/36 22/38/36
f 22/38/36 20/39/36 19/36/36
