# Blender v2.83.9 OBJ File: ''
# www.blender.org
mtllib samuraichsw.mtl
o Material#84
v -0.168565 4.388620 -0.211548
v -0.168565 4.386510 0.168858
v -0.174069 1.738180 0.156574
v 0.168561 4.386510 0.168858
v 0.174065 1.738180 0.156574
v 0.174065 1.740290 -0.229614
v 0.168561 4.388620 -0.211548
v -0.174069 1.740290 -0.229614
v 0.084246 6.796290 -0.023911
v -0.000002 1.899370 0.487484
v -0.147303 -2.932190 0.132382
v -0.209474 -1.947410 0.014238
v -0.147303 -1.947410 0.132382
v 0.101033 -2.932190 0.168383
v -0.028703 -1.947410 0.191259
v 0.192355 -2.932190 0.072491
v 0.210357 -2.932190 -0.059790
v 0.148195 -1.947410 -0.177934
v -0.191460 -2.932190 -0.118042
v -0.100149 -2.932190 -0.213935
v -0.191460 -1.947410 -0.118042
v 0.029586 -2.932190 -0.236811
v -0.028703 -2.932190 0.191259
v 0.148198 -2.932190 -0.177935
v -0.209481 -2.932190 0.014239
v -0.161829 0.875840 0.144947
v -0.032362 0.875840 0.208092
v 0.109496 0.875840 0.183079
v 0.229603 0.875840 -0.063183
v 0.209559 0.875840 0.079461
v 0.210361 -0.039375 -0.059790
v 0.161981 0.875840 -0.190367
v 0.029590 -0.039375 -0.236812
v 0.032513 0.875840 -0.253513
v -0.209407 0.875840 -0.124882
v -0.109345 0.875840 -0.228500
v -0.229456 0.875840 0.017762
v -0.191460 -0.039376 -0.118042
v -0.147303 -0.039376 0.132381
v -0.028703 -0.039375 0.191259
v 0.101037 -0.039375 0.168382
v 0.101037 -1.947410 0.168382
v 0.192351 -0.039375 0.072491
v 0.192351 -1.947410 0.072491
v 0.210361 -1.947410 -0.059790
v 0.148195 -0.039375 -0.177934
v -0.100149 -0.039375 -0.213935
v 0.029590 -1.947410 -0.236812
v -0.100149 -1.947410 -0.213935
v -0.209470 -0.039376 0.014237
v -0.000002 6.794520 0.487484
v 0.084246 11.912400 -0.023911
v -0.000002 11.916400 0.487484
v -0.000002 1.899370 -0.581524
v -0.084249 11.912400 -0.070133
v -0.000002 6.794520 -0.581524
v -0.000002 11.916400 -0.581524
v -0.278012 0.868537 0.834808
v -0.219452 0.868537 -0.893368
v 0.219448 0.868537 -0.893368
v 0.278008 0.868537 -0.834808
v 0.219448 1.057490 -0.893368
v -0.278012 0.868537 -0.834808
v -0.278012 1.057490 -0.834808
v 0.219448 0.868537 0.893368
v 0.219448 1.116050 0.834808
v 0.219448 1.057490 0.893368
v -0.219452 1.057490 0.893368
v -0.219452 1.116050 -0.834808
v 0.278008 1.057490 0.834808
v -0.219452 1.057490 -0.893368
v 0.219448 1.116050 -0.834808
v -0.278012 1.057490 0.834808
v -0.219452 1.116050 0.834808
v 0.278008 1.057490 -0.834808
v 0.278008 0.868537 0.834808
v -0.219452 0.868537 0.893368
v -0.101379 1.057410 -0.093498
v -0.101379 1.781380 -0.093498
v -0.101379 1.781380 0.023563
v -0.101379 1.057410 0.023563
v -0.000002 1.781380 0.082092
v 0.101375 1.781380 0.023563
v -0.000002 1.057410 0.082092
v 0.101375 1.781380 -0.093498
v 0.101375 1.057410 0.023563
v 0.101375 1.057410 -0.093498
v -0.000002 1.057410 -0.152031
v -0.000002 1.781380 -0.152031
v -0.084249 6.796290 -0.023911
v -0.084249 6.796290 -0.070133
v 0.084246 6.796290 -0.070133
v 0.084246 1.901230 -0.023911
v -0.084249 1.901230 -0.023911
v -0.084249 1.901230 -0.070133
v 0.084246 1.901230 -0.070133
v 0.084246 11.912400 -0.070133
v -0.084249 11.912400 -0.023911
v -0.214250 -3.137830 -0.221699
v -0.000001 -2.897820 -0.309155
v -0.214250 -3.137830 0.200546
v -0.000001 -2.897820 0.288002
v -0.214250 -2.897820 0.200546
v 0.214246 -3.137830 0.200546
v 0.302991 -2.897820 -0.010578
v 0.214246 -3.137830 -0.221699
v 0.302991 -3.137830 -0.010578
v -0.000001 -3.137830 0.288002
v -0.302992 -3.137830 -0.010578
v -0.000001 -3.137830 -0.309155
v -0.302992 -2.897820 -0.010578
v 0.214246 -2.897820 0.200546
v 0.214246 -2.897820 -0.221699
v -0.214250 -2.897820 -0.221699
vt 0.591940 0.063066
vt 0.632549 0.063066
vt 0.631907 0.362122
vt 0.592582 0.362122
vt 0.495497 0.365011
vt 0.496142 0.065960
vt 0.535462 0.065960
vt 0.536107 0.365011
vt 0.450449 0.364884
vt 0.451771 0.065830
vt 0.496140 0.023004
vt 0.535465 0.023005
vt 0.579833 0.065830
vt 0.581155 0.364884
vt 0.536105 0.408620
vt 0.495497 0.408619
vt 0.067102 0.071650
vt 0.160795 0.072426
vt 0.160795 1.059173
vt 0.067102 1.058416
vt 0.067102 -0.454600
vt 0.067102 0.532169
vt 0.160795 0.532926
vt 0.160795 -0.453420
vt 0.068348 0.055766
vt 0.160795 0.071953
vt 0.160795 0.038783
vt 0.628419 0.437858
vt 0.628419 0.582219
vt 0.604779 0.582219
vt 0.604779 0.437858
vt 0.652059 0.437858
vt 0.652059 0.582219
vt 0.439302 0.437858
vt 0.439302 0.582219
vt 0.415662 0.582219
vt 0.415662 0.437858
vt 0.462941 0.437858
vt 0.462941 0.582219
vt 0.486581 0.437858
vt 0.486581 0.582219
vt 0.510221 0.437858
vt 0.510221 0.582219
vt 0.533860 0.437858
vt 0.533860 0.582219
vt 0.557500 0.437858
vt 0.557500 0.582219
vt 0.581140 0.437858
vt 0.581140 0.582219
vt 0.564140 0.934253
vt 0.570812 0.913522
vt 0.588279 0.900710
vt 0.609870 0.900710
vt 0.627337 0.913522
vt 0.634009 0.934253
vt 0.627337 0.954983
vt 0.609870 0.967796
vt 0.588280 0.967796
vt 0.570812 0.954983
vt 0.604779 0.437858
vt 0.628419 0.437858
vt 0.628419 0.562535
vt 0.604779 0.562535
vt 0.652059 0.437858
vt 0.652059 0.562535
vt 0.415662 0.437858
vt 0.439302 0.437858
vt 0.439302 0.562535
vt 0.415662 0.562535
vt 0.462941 0.437858
vt 0.462941 0.562535
vt 0.486581 0.437858
vt 0.486581 0.562535
vt 0.510221 0.437858
vt 0.510221 0.562535
vt 0.533860 0.437858
vt 0.533860 0.562535
vt 0.557500 0.437858
vt 0.557500 0.562535
vt 0.581140 0.437858
vt 0.581140 0.562535
vt 0.628419 0.875316
vt 0.604779 0.875316
vt 0.652059 0.875316
vt 0.439302 0.875316
vt 0.415662 0.875316
vt 0.462941 0.875316
vt 0.486581 0.875316
vt 0.510221 0.875316
vt 0.533860 0.875316
vt 0.557500 0.875316
vt 0.581140 0.875316
vt 0.067102 0.074244
vt 0.160795 0.075002
vt 0.160747 1.106551
vt 0.067102 1.106710
vt 0.160795 0.580063
vt 0.160795 -0.451250
vt 0.067102 -0.452000
vt 0.067102 0.580464
vt 0.067102 0.072372
vt 0.160795 0.072353
vt 0.160795 1.059100
vt 0.067102 1.059139
vt 0.067102 -0.453730
vt 0.067102 0.533039
vt 0.160795 0.533796
vt 0.160795 -0.452950
vt 0.068351 0.055766
vt 0.160795 0.038783
vt 0.067102 0.074967
vt 0.160795 0.074928
vt 0.160795 1.106236
vt 0.067102 1.107433
vt 0.160843 0.581174
vt 0.160795 -0.450380
vt 0.067102 -0.451130
vt 0.067102 0.581334
vt 0.543131 0.223924
vt 0.480650 0.223167
vt 0.472413 0.217271
vt 0.475247 0.052028
vt 0.483683 0.046333
vt 0.546164 0.047090
vt 0.554401 0.052987
vt 0.551567 0.218229
vt 0.548992 0.252919
vt 0.546111 0.420911
vt 0.470915 0.420000
vt 0.473796 0.252008
vt 0.588779 0.052028
vt 0.585898 0.220020
vt 0.477735 0.022372
vt 0.552931 0.023283
vt 0.438034 0.218230
vt 0.440916 0.050237
vt 0.549079 0.247885
vt 0.473883 0.246975
vt 0.579720 0.227356
vt 0.580707 0.209063
vt 0.547410 0.027834
vt 0.547740 0.012325
vt 0.466154 0.252179
vt 0.468691 0.236018
vt 0.433844 0.052656
vt 0.435724 0.039280
vt 0.590397 0.219271
vt 0.593246 0.053176
vt 0.543264 0.058034
vt 0.487112 0.057354
vt 0.436417 0.050987
vt 0.433568 0.217082
vt 0.483550 0.212224
vt 0.539701 0.212903
vt 0.557268 0.064882
vt 0.565889 0.038894
vt 0.562081 0.232738
vt 0.554359 0.206550
vt 0.475135 0.043909
vt 0.443363 0.042474
vt 0.469545 0.205375
vt 0.460924 0.231364
vt 0.160652 1.140998
vt 0.068202 1.124015
vt 0.160843 1.106551
vt 0.068500 1.124015
vt 0.160939 1.140998
vt 0.220052 0.534590
vt 0.199876 0.534590
vt 0.199876 0.464837
vt 0.220052 0.464837
vt 0.240229 0.534590
vt 0.240229 0.464837
vt 0.139347 0.534590
vt 0.119171 0.534590
vt 0.119171 0.464837
vt 0.139347 0.464837
vt 0.159524 0.534590
vt 0.159524 0.464837
vt 0.179700 0.534590
vt 0.179700 0.464837
vt 0.169152 0.071953
vt 0.169152 1.058303
vt 0.169152 1.059173
vt 0.169152 0.072426
vt 0.169152 0.038783
vt 0.169152 0.074131
vt 0.169151 1.105440
vt 0.169104 1.106551
vt 0.169152 0.075002
vt 0.169008 1.140998
vt 0.478731 0.160795
vt 0.478731 0.122341
vt 0.523304 0.122341
vt 0.523304 0.160795
vt 0.478731 0.083887
vt 0.523304 0.083887
vt 0.478731 0.045434
vt 0.523304 0.045434
vt 0.478731 0.006980
vt 0.523304 0.006980
vt 0.478731 0.314610
vt 0.478731 0.276156
vt 0.523304 0.276156
vt 0.523304 0.314610
vt 0.478731 0.237702
vt 0.523304 0.237702
vt 0.478731 0.199249
vt 0.523304 0.199249
vt 0.479064 0.193376
vt 0.446251 0.166185
vt 0.446251 0.127731
vt 0.479064 0.100540
vt 0.525468 0.100540
vt 0.558280 0.127731
vt 0.558280 0.166185
vt 0.525468 0.193376
vt 0.556116 0.095150
vt 0.602520 0.095150
vt 0.635333 0.122341
vt 0.635333 0.160795
vt 0.602520 0.187986
vt 0.556116 0.187986
vn 0.0000 0.0068 -1.0000
vn 0.0000 -0.0046 1.0000
vn 1.0000 0.0021 0.0000
vn 0.0000 1.0000 0.0055
vn -1.0000 0.0021 0.0000
vn 0.0000 -1.0000 -0.0055
vn 0.9867 0.0000 0.1625
vn -0.9867 0.0000 0.1625
vn 0.0000 -1.0000 -0.0036
vn 0.0000 -1.0000 -0.0011
vn -0.0000 -1.0000 -0.0016
vn -0.7714 0.0000 0.6364
vn -0.6180 -0.0000 0.7862
vn -0.9608 0.0000 0.2772
vn -0.9977 0.0000 0.0682
vn -0.2496 -0.0000 0.9683
vn -0.0339 -0.0000 0.9994
vn 0.3737 -0.0000 0.9275
vn 0.5657 -0.0000 0.8246
vn 0.8496 -0.0000 0.5274
vn 0.9425 -0.0000 0.3342
vn 0.5658 0.0000 0.8246
vn 0.9977 0.0000 -0.0682
vn 0.9608 -0.0000 -0.2772
vn 0.7714 0.0000 -0.6364
vn 0.6180 -0.0000 -0.7862
vn 0.2496 -0.0000 -0.9684
vn 0.0340 -0.0000 -0.9994
vn 0.7714 -0.0002 -0.6364
vn -0.3737 -0.0000 -0.9275
vn -0.5658 -0.0000 -0.8246
vn 0.0339 0.0000 -0.9994
vn -0.8496 -0.0000 -0.5274
vn -0.9425 -0.0000 -0.3342
vn -0.9977 0.0000 0.0681
vn -0.9608 -0.0001 0.2772
vn -0.8496 0.0001 -0.5274
vn 0.0000 -1.0000 0.0000
vn -0.9846 -0.0110 0.1743
vn -0.6979 -0.0102 0.7162
vn -0.7688 -0.0212 0.6391
vn -0.9974 -0.0218 0.0681
vn -0.9846 -0.0109 0.1744
vn -0.6978 -0.0102 0.7162
vn -0.1427 -0.0093 0.9897
vn -0.2472 -0.0192 0.9688
vn -0.2473 -0.0192 0.9688
vn -0.6978 -0.0101 0.7162
vn -0.1426 -0.0093 0.9897
vn 0.4715 -0.0095 0.8818
vn 0.3716 -0.0184 0.9282
vn 0.3716 -0.0183 0.9282
vn 0.9009 -0.0103 0.4339
vn 0.8475 -0.0196 0.5305
vn 0.9846 -0.0106 -0.1744
vn 0.9975 -0.0210 -0.0681
vn 0.9975 -0.0210 -0.0680
vn 0.9846 -0.0105 -0.1743
vn 0.6979 -0.0099 -0.7162
vn 0.7689 -0.0205 -0.6391
vn 0.7688 -0.0205 -0.6391
vn 0.1426 -0.0092 -0.9897
vn 0.2473 -0.0188 -0.9688
vn 0.6978 -0.0098 -0.7162
vn -0.4715 -0.0097 -0.8818
vn -0.3716 -0.0185 -0.9282
vn -0.9009 -0.0107 -0.4339
vn -0.8474 -0.0202 -0.5305
vn -0.8475 -0.0202 -0.5305
vn 0.6978 -0.0099 -0.7162
vn -0.4715 -0.0096 -0.8818
vn -0.9846 -0.0109 0.1743
vn -0.9867 0.0000 -0.1626
vn 0.9867 0.0000 -0.1626
vn 0.0000 -1.0000 0.0036
vn -0.0000 -1.0000 0.0011
vn 0.0000 -1.0000 0.0016
vn 0.2897 -0.8194 0.4946
vn -0.2380 -0.3365 0.9111
vn -0.5885 -0.7313 0.3447
vn -0.5885 -0.7313 0.3448
vn -0.9111 -0.3365 -0.2380
vn -0.2897 -0.8194 -0.4946
vn 0.2380 -0.3365 -0.9111
vn 0.5885 -0.7313 -0.3447
vn 0.5885 -0.7313 -0.3448
vn 0.9111 -0.3365 0.2380
vn 0.3784 0.8929 0.2441
vn 0.2924 0.8420 -0.4534
vn -0.3784 0.8929 -0.2441
vn -0.2924 0.8420 0.4534
vn 0.9111 -0.3366 0.2380
vn 0.8929 0.3784 -0.2441
vn 0.8420 0.2924 0.4534
vn 0.2380 -0.3366 -0.9111
vn -0.2441 0.3784 -0.8929
vn -0.2440 0.3784 -0.8929
vn 0.4534 0.2924 -0.8420
vn -0.9111 -0.3366 -0.2380
vn -0.8929 0.3784 0.2441
vn -0.8420 0.2924 -0.4534
vn -0.2380 -0.3366 0.9111
vn 0.2441 0.3784 0.8929
vn 0.2440 0.3784 0.8929
vn -0.4534 0.2924 0.8420
vn -0.3785 0.8928 -0.2441
vn 0.3785 0.8928 0.2441
vn 0.2898 -0.8194 0.4946
vn -0.2898 -0.8194 -0.4946
vn -0.0000 1.0000 -0.0026
vn 0.0000 1.0000 -0.0037
vn 0.0000 1.0000 -0.0078
vn -0.0000 1.0000 0.0038
vn 0.0000 1.0000 0.0078
vn 0.0000 1.0000 0.0026
vn -0.7559 -0.0000 -0.6546
vn 0.1890 -0.0000 -0.9820
vn -0.1890 0.0000 -0.9820
vn -0.9449 0.0000 -0.3273
vn -0.9449 -0.0000 0.3273
vn -0.9449 0.0001 -0.3273
vn -0.7559 0.0000 0.6547
vn -0.1890 -0.0001 0.9820
vn -0.9449 -0.0000 0.3274
vn 0.1890 0.0000 0.9820
vn -0.1890 -0.0000 0.9820
vn 0.7559 0.0000 0.6547
vn 0.9449 0.0000 0.3273
vn 0.9449 -0.0000 -0.3273
vn 0.7559 0.0000 -0.6546
vn -1.0000 0.0000 0.0000
vn 1.0000 0.0000 0.0000
vn 0.0000 -1.0000 0.0014
vn 0.0000 -1.0000 -0.0020
vn -0.0000 -1.0000 -0.0014
vn -0.0000 -1.0000 0.0020
vn 0.0000 1.0000 -0.0024
vn 0.0000 1.0000 0.0040
vn -0.0000 1.0000 0.0024
vn -0.0000 1.0000 -0.0040
vn -0.1348 -0.0000 -0.9909
vn -0.7940 0.0000 -0.6079
vn -0.5996 -0.0000 -0.8003
vn 0.1348 -0.0000 -0.9909
vn -0.9903 0.0000 0.1387
vn -0.9903 -0.0000 -0.1387
vn -0.5996 0.0000 0.8003
vn -0.7940 -0.0000 0.6079
vn 0.1348 0.0000 0.9909
vn -0.1348 -0.0000 0.9909
vn 0.7940 0.0000 0.6079
vn 0.5996 -0.0000 0.8003
vn 0.9903 0.0000 -0.1388
vn 0.9903 -0.0000 0.1387
vn 0.5996 0.0000 -0.8003
vn 0.7940 -0.0000 -0.6079
vn 0.9903 -0.0000 0.1388
vn 0.0000 1.0000 0.0000
usemtl None
s off
f 6/1/1 8/2/1 1/3/1
f 1/3/1 7/4/1 6/1/1
f 5/5/2 4/6/2 2/7/2
f 2/7/2 3/8/2 5/5/2
f 6/9/3 7/10/3 4/6/3
f 4/6/3 5/5/3 6/9/3
f 7/11/4 1/12/4 2/7/4
f 2/7/4 4/6/4 7/11/4
f 1/13/5 8/14/5 3/8/5
f 3/8/5 2/7/5 1/13/5
f 8/15/6 6/16/6 5/5/6
f 5/5/6 3/8/6 8/15/6
f 10/17/7 93/18/7 9/19/7
f 9/19/7 51/20/7 10/17/7
f 10/21/8 51/22/8 90/23/8
f 90/23/8 94/24/8 10/21/8
f 10/25/9 94/26/10 93/27/11
f 11/28/12 13/29/13 12/30/14
f 12/30/14 25/31/15 11/28/12
f 23/32/16 15/33/17 13/29/13
f 13/29/13 11/28/12 23/32/16
f 14/34/18 42/35/19 15/36/17
f 15/36/17 23/37/16 14/34/18
f 16/38/20 44/39/21 42/35/22
f 42/35/19 14/34/18 16/38/20
f 17/40/23 45/41/24 44/39/21
f 44/39/21 16/38/20 17/40/23
f 24/42/25 18/43/26 45/41/24
f 45/41/24 17/40/23 24/42/25
f 22/44/27 48/45/28 18/43/26
f 18/43/26 24/42/29 22/44/27
f 20/46/30 49/47/31 48/45/32
f 48/45/32 22/44/27 20/46/30
f 19/48/33 21/49/34 49/47/31
f 49/47/31 20/46/30 19/48/33
f 25/31/35 12/30/36 21/49/34
f 21/49/34 19/48/37 25/31/35
f 20/50/38 22/51/38 24/52/38
f 24/52/38 17/53/38 16/54/38
f 16/54/38 14/55/38 23/56/38
f 23/56/38 11/57/38 25/58/38
f 16/54/38 23/56/38 25/58/38
f 24/52/38 16/54/38 25/58/38
f 20/50/38 24/52/38 25/58/38
f 19/59/38 20/50/38 25/58/38
f 50/60/39 39/61/40 26/62/41
f 26/62/41 37/63/42 50/60/43
f 39/61/44 40/64/45 27/65/46
f 27/65/47 26/62/41 39/61/48
f 40/66/49 41/67/50 28/68/51
f 28/68/52 27/69/47 40/66/49
f 41/67/50 43/70/53 30/71/54
f 30/71/54 28/68/51 41/67/50
f 43/70/53 31/72/55 29/73/56
f 29/73/57 30/71/54 43/70/53
f 31/72/58 46/74/59 32/75/60
f 32/75/61 29/73/57 31/72/58
f 46/74/59 33/76/62 34/77/63
f 34/77/63 32/75/60 46/74/64
f 33/76/62 47/78/65 36/79/66
f 36/79/66 34/77/63 33/76/62
f 47/78/65 38/80/67 35/81/68
f 35/81/69 36/79/66 47/78/65
f 38/80/67 50/60/39 37/63/42
f 37/63/42 35/81/69 38/80/67
f 39/82/44 50/83/39 12/30/14
f 12/30/14 13/29/13 39/82/40
f 40/84/49 39/82/44 13/29/13
f 13/29/13 15/33/17 40/84/49
f 41/85/50 40/86/49 15/36/17
f 15/36/17 42/35/19 41/85/50
f 43/87/53 41/85/50 42/35/22
f 42/35/22 44/39/21 43/87/53
f 31/88/58 43/87/53 44/39/21
f 44/39/21 45/41/24 31/88/58
f 46/89/64 31/88/55 45/41/24
f 45/41/24 18/43/26 46/89/64
f 33/90/62 46/89/70 18/43/26
f 18/43/26 48/45/28 33/90/62
f 47/91/71 33/90/62 48/45/32
f 48/45/32 49/47/31 47/91/65
f 38/92/67 47/91/65 49/47/31
f 49/47/31 21/49/34 38/92/67
f 50/83/72 38/92/67 21/49/34
f 21/49/34 12/30/14 50/83/72
f 51/93/7 9/94/7 52/95/7
f 52/95/7 53/96/7 51/93/7
f 98/97/8 90/98/8 51/99/8
f 51/99/8 53/100/8 98/97/8
f 54/101/73 95/102/73 91/103/73
f 91/103/73 56/104/73 54/101/73
f 54/105/74 56/106/74 92/107/74
f 92/107/74 96/108/74 54/105/74
f 54/109/75 96/110/76 95/102/77
f 56/111/73 91/112/73 55/113/73
f 55/113/73 57/114/73 56/111/73
f 97/115/74 92/116/74 56/117/74
f 56/117/74 57/118/74 97/115/74
f 65/119/78 77/120/79 58/121/80
f 58/121/81 63/122/82 59/123/83
f 65/119/78 58/121/81 59/123/83
f 59/123/83 60/124/84 61/125/85
f 65/119/78 59/123/83 61/125/86
f 76/126/87 65/119/78 61/125/86
f 66/127/88 72/128/89 69/129/90
f 69/129/90 74/130/91 66/127/88
f 76/126/92 61/125/85 75/131/93
f 75/131/93 70/132/94 76/126/92
f 60/124/95 59/123/83 71/133/96
f 71/133/97 62/134/98 60/124/95
f 63/122/99 58/121/80 73/135/100
f 73/135/100 64/136/101 63/122/99
f 77/120/102 65/119/78 67/137/103
f 67/137/104 68/138/105 77/120/102
f 70/132/94 66/139/88 67/140/103
f 62/134/98 72/141/89 75/142/93
f 68/138/105 74/143/91 73/144/100
f 64/136/101 69/145/90 71/146/96
f 66/147/88 70/132/94 75/131/93
f 75/131/93 72/148/89 66/147/88
f 72/149/89 62/134/98 71/133/96
f 71/133/96 69/150/106 72/149/89
f 69/151/90 64/136/101 73/135/100
f 73/135/100 74/152/91 69/151/90
f 74/153/91 68/138/105 67/137/103
f 67/137/103 66/154/107 74/153/91
f 61/155/85 60/124/95 62/134/98
f 62/134/98 75/156/93 61/155/85
f 70/157/94 67/137/103 65/119/108
f 65/119/78 76/158/92 70/157/94
f 59/159/83 63/122/99 64/136/101
f 64/136/101 71/160/96 59/159/109
f 58/161/80 77/120/102 68/138/105
f 68/138/105 73/162/100 58/161/80
f 52/95/110 98/163/111 53/164/112
f 97/165/113 57/166/114 55/167/115
f 79/168/116 89/169/117 88/170/118
f 88/170/118 78/171/119 79/168/116
f 80/172/120 79/168/116 78/171/119
f 78/171/121 81/173/122 80/172/120
f 82/174/123 80/175/124 81/176/122
f 81/176/122 84/177/125 82/174/126
f 83/178/127 82/174/126 84/177/125
f 84/177/125 86/179/128 83/178/127
f 85/180/129 83/178/127 86/179/128
f 86/179/128 87/181/130 85/180/129
f 89/169/117 85/180/129 87/181/130
f 87/181/130 88/170/118 89/169/117
f 95/102/131 94/182/131 90/183/131
f 90/183/131 91/103/131 95/102/131
f 92/184/132 9/19/132 93/18/132
f 93/18/132 96/185/132 92/184/132
f 96/110/133 93/186/134 94/182/135
f 94/182/135 95/102/136 96/110/133
f 91/112/131 90/187/131 98/188/131
f 98/188/131 55/113/131 91/112/131
f 97/189/132 52/95/132 9/94/132
f 9/94/132 92/190/132 97/189/132
f 52/95/137 97/189/138 55/191/139
f 55/191/139 98/163/140 52/95/137
f 110/192/141 99/193/142 114/194/143
f 114/194/143 100/195/144 110/192/141
f 99/193/142 109/196/145 111/197/146
f 111/197/146 114/194/143 99/193/142
f 109/196/145 101/198/147 103/199/148
f 103/199/148 111/197/146 109/196/145
f 101/198/147 108/200/149 102/201/150
f 102/201/150 103/199/148 101/198/147
f 108/202/149 104/203/151 112/204/152
f 112/204/152 102/205/150 108/202/149
f 104/203/151 107/206/153 105/207/154
f 105/207/154 112/204/152 104/203/151
f 107/206/153 106/208/155 113/209/156
f 113/209/156 105/207/157 107/206/153
f 106/208/155 110/192/141 100/195/144
f 100/195/144 113/209/156 106/208/155
f 107/210/38 104/211/38 108/212/38
f 108/212/38 101/213/38 109/214/38
f 109/214/38 99/215/38 110/216/38
f 108/212/38 109/214/38 110/216/38
f 107/210/38 108/212/38 110/216/38
f 106/217/38 107/210/38 110/216/38
f 114/194/158 111/218/158 103/219/158
f 103/219/158 102/220/158 112/221/158
f 112/221/158 105/222/158 113/223/158
f 103/219/158 112/221/158 113/223/158
f 114/194/158 103/219/158 113/223/158
f 100/195/158 114/194/158 113/223/158
